<?xml version="1.0" encoding="UTF-8"?>
<svg width="14px" height="10px" viewBox="0 0 14 10" version="1.1" xmlns="http://www.w3.org/2000/svg" xmlns:xlink="http://www.w3.org/1999/xlink">
    <title>Codepen</title>
    <g id="codepen">
		<polygon class="inner" points="38.3,136 100.1,177.2 100.1,140.4 65.9,117.5 "/>
		<polygon points="177.7,80 115.9,38.8 115.9,75.6 150.1,98.5 "/>
		<polygon points="32,94.8 32,121.2 51.7,108 "/>
		<polygon points="108,89.3 80.1,108 108,126.7 135.9,108 "/>
		<polygon points="100.1,75.6 100.1,38.8 38.3,80 65.9,98.5 "/>
		<path d="M214.6,0H1.4C0.6,0,0,0.6,0,1.4v213.1c0,0.8,0.6,1.4,1.4,1.4h213.1c0.8,0,1.4-0.6,1.4-1.4V1.4C216,0.6,215.4,0,214.6,0z
			 M199.8,136c0,0.3,0,0.7-0.1,1c0,0.1,0,0.2-0.1,0.3c0,0.2-0.1,0.4-0.1,0.7c0,0.1-0.1,0.3-0.1,0.4c-0.1,0.2-0.1,0.4-0.2,0.6
			c-0.1,0.1-0.1,0.3-0.2,0.4c-0.1,0.2-0.2,0.4-0.3,0.5c-0.1,0.1-0.1,0.2-0.2,0.4c-0.1,0.2-0.2,0.3-0.3,0.5c-0.1,0.1-0.2,0.2-0.3,0.3
			c-0.1,0.1-0.3,0.3-0.4,0.4c-0.1,0.1-0.2,0.2-0.3,0.3c-0.1,0.1-0.3,0.3-0.4,0.4c-0.1,0.1-0.2,0.2-0.4,0.3c0,0-0.1,0.1-0.1,0.1
			l-83.9,55.9c-1.3,0.9-2.9,1.3-4.4,1.3c-1.5,0-3.1-0.4-4.4-1.3l-83.9-55.9c0,0-0.1-0.1-0.1-0.1c-0.1-0.1-0.2-0.2-0.4-0.3
			c-0.2-0.1-0.3-0.2-0.4-0.4c-0.1-0.1-0.2-0.2-0.3-0.3c-0.1-0.1-0.3-0.3-0.4-0.4c-0.1-0.1-0.2-0.2-0.3-0.3c-0.1-0.2-0.2-0.3-0.3-0.5
			c-0.1-0.1-0.2-0.2-0.2-0.4c-0.1-0.2-0.2-0.3-0.3-0.5c-0.1-0.1-0.1-0.3-0.2-0.4c-0.1-0.2-0.1-0.4-0.2-0.6c0-0.1-0.1-0.3-0.1-0.4
			c-0.1-0.2-0.1-0.4-0.1-0.7c0-0.1,0-0.2-0.1-0.3c0-0.3-0.1-0.7-0.1-1V80c0-0.3,0-0.7,0.1-1c0-0.1,0-0.2,0.1-0.3
			c0-0.2,0.1-0.4,0.1-0.7c0-0.1,0.1-0.3,0.1-0.4c0.1-0.2,0.1-0.4,0.2-0.6c0.1-0.1,0.1-0.3,0.2-0.4c0.1-0.2,0.2-0.4,0.3-0.5
			c0.1-0.1,0.1-0.2,0.2-0.4c0.1-0.2,0.2-0.3,0.3-0.5c0.1-0.1,0.2-0.2,0.3-0.3c0.1-0.1,0.3-0.3,0.4-0.4c0.1-0.1,0.2-0.2,0.3-0.3
			c0.1-0.1,0.3-0.3,0.4-0.4c0.1-0.1,0.2-0.2,0.4-0.3c0,0,0.1-0.1,0.1-0.1l83.9-55.9c2.7-1.8,6.1-1.8,8.8,0l83.9,55.9
			c0,0,0.1,0.1,0.1,0.1c0.1,0.1,0.2,0.2,0.4,0.3c0.2,0.1,0.3,0.2,0.4,0.4c0.1,0.1,0.2,0.2,0.3,0.3c0.1,0.1,0.3,0.3,0.4,0.4
			c0.1,0.1,0.2,0.2,0.3,0.3c0.1,0.2,0.2,0.3,0.3,0.5c0.1,0.1,0.2,0.2,0.2,0.4c0.1,0.2,0.2,0.3,0.3,0.5c0.1,0.1,0.1,0.3,0.2,0.4
			c0.1,0.2,0.1,0.4,0.2,0.6c0,0.1,0.1,0.3,0.1,0.4c0.1,0.2,0.1,0.4,0.1,0.7c0,0.1,0,0.2,0.1,0.3c0,0.3,0.1,0.7,0.1,1V136z"/>
		<polygon points="115.9,140.4 115.9,177.2 177.7,136 150.1,117.5 	"/>
		<polygon points="184,121.2 184,94.8 164.3,108 	"/>
	</g>
</svg>
