<?xml version="1.0" encoding="UTF-8"?>
<!DOCTYPE svg PUBLIC "-//W3C//DTD SVG 1.1//EN" "http://www.w3.org/Graphics/SVG/1.1/DTD/svg11.dtd">
<!-- Creator: CorelDRAW -->
<svg xmlns="http://www.w3.org/2000/svg" xml:space="preserve" width="6.82666in" height="6.82666in" style="shape-rendering:geometricPrecision; text-rendering:geometricPrecision; image-rendering:optimizeQuality; fill-rule:evenodd; clip-rule:evenodd"
viewBox="0 0 6.82666 6.82666"
 xmlns:xlink="http://www.w3.org/1999/xlink">
 <defs>
  <style type="text/css">
   <![CDATA[
    .fil0 {fill:#7E57C2}
    .fil1 {fill:#FFFFFE;fill-rule:nonzero}
   ]]>
  </style>
 </defs>
 <g id="Layer_x0020_1">
  <metadata id="CorelCorpID_0Corel-Layer"/>
  <!-- <rect class="fil0" width="6.82666" height="6.82666" rx="0.853335" ry="0.853335"/> -->
  <path class="fil1" d="M4.65442 5.65227c-0.203579,0.112827 -0.433272,0.132567 -0.640043,0.0732677 -0.207039,-0.059374 -0.391469,-0.197815 -0.504209,-0.401224 -0.0563819,-0.101736 -0.0968898,-0.185646 -0.12687,-0.252732 -0.0317087,0.0669055 -0.0744291,0.149689 -0.133421,0.247866l-3.93701e-006 7.87402e-006c-0.119835,0.199413 -0.30913,0.331374 -0.518283,0.383508 -0.208764,0.0520394 -0.437465,0.0243819 -0.63663,-0.0952992l-7.87402e-006 -3.93701e-006c-0.199413,-0.119831 -0.33137,-0.309122 -0.383508,-0.51828 -0.0520394,-0.208764 -0.0243819,-0.437476 0.0952992,-0.636638 0.059563,-0.099122 0.112248,-0.175937 0.155819,-0.235346 -0.0732244,0.00544094 -0.166087,0.0093937 -0.281728,0.00737008 -0.232602,-0.00407087 -0.441484,-0.101976 -0.591134,-0.256953 -0.149476,-0.154807 -0.239902,-0.366744 -0.235835,-0.599087 0.00406693,-0.23261 0.101972,-0.441488 0.256949,-0.591134 0.154807,-0.149476 0.366748,-0.239906 0.599094,-0.235839 0.115933,0.0020315 0.208547,0.00918898 0.28124,0.017 -0.0409606,-0.0604449 -0.0906811,-0.138772 -0.14685,-0.24011 -0.112835,-0.203579 -0.132571,-0.433272 -0.0732717,-0.640039 0.059374,-0.207039 0.197811,-0.391469 0.40122,-0.504209 0.203579,-0.112827 0.433272,-0.132567 0.640043,-0.0732677 0.207039,0.059374 0.391469,0.197815 0.504209,0.401224 0.0563819,0.101728 0.0968898,0.185638 0.12687,0.252728 0.0317087,-0.0669055 0.0744291,-0.149685 0.133421,-0.247862l3.93701e-006 -7.87402e-006c0.119835,-0.199413 0.30913,-0.331374 0.518283,-0.383508 0.208764,-0.0520394 0.437465,-0.0243819 0.63663,0.0952992l7.87402e-006 3.93701e-006c0.199413,0.119831 0.33137,0.309122 0.383508,0.51828 0.0520394,0.208764 0.0243819,0.437476 -0.0952992,0.636638 -0.059563,0.099122 -0.112248,0.175937 -0.155819,0.235346 0.0732283,-0.00544094 0.166091,-0.0093937 0.281728,-0.00737008 0.232602,0.00407087 0.441484,0.101976 0.591134,0.256953 0.149476,0.154807 0.239902,0.366744 0.235835,0.599087 -0.00406693,0.23261 -0.101972,0.441488 -0.256949,0.591134 -0.154807,0.149476 -0.366748,0.239906 -0.599094,0.235839 -0.115933,-0.0020315 -0.208547,-0.00918504 -0.28124,-0.017 0.0409606,0.0604488 0.090685,0.138772 0.14685,0.24011 0.112835,0.203579 0.132571,0.433272 0.0732717,0.640039 -0.059374,0.207039 -0.197811,0.391469 -0.40122,0.504209zm-0.713102 -2.76692c-0.13511,-0.135114 -0.321783,-0.218685 -0.527984,-0.218685 -0.206201,0 -0.392874,0.0835709 -0.527984,0.218685 -0.135114,0.13511 -0.218685,0.321783 -0.218685,0.527984 0,0.206201 0.0835709,0.392874 0.218685,0.527984 0.13511,0.135114 0.321783,0.218685 0.527984,0.218685 0.206201,0 0.392874,-0.0835709 0.527984,-0.218685 0.135114,-0.13511 0.218685,-0.321783 0.218685,-0.527984 0,-0.206201 -0.0835709,-0.392874 -0.218685,-0.527984z"/>
 </g>
</svg>
