<svg width="16" height="16" viewBox="0 0 106 106"  xmlns="http://www.w3.org/2000/svg">	
    <g id="github" transform="translate(-1230.000000, -56.000000)" fill="currentColor" fill-rule="evenodd">
      <path d="M1244.92685,60.9843665 C1244.21147,59.7586433 1243.2411,58.7882366 1242.01549,58.0729274 C1240.78969,57.3575816 1239.45149,57 1237.99993,57 C1236.54855,57 1235.20991,57.3576911 1233.98437,58.0729274 C1232.75864,58.7882001 1231.78831,59.7586433 1231.07293,60.9843665 C1230.35765,62.2100532 1230,63.5485126 1230,64.9997081 C1230,66.7429232 1230.50859,68.3104669 1231.52602,69.7027404 C1232.54335,71.0951234 1233.85758,72.0585982 1235.46862,72.5932741 C1235.65615,72.6280801 1235.79497,72.6035992 1235.88523,72.5204517 C1235.97553,72.4371947 1236.02062,72.3329229 1236.02062,72.208074 C1236.02062,72.1872415 1236.01883,71.9998221 1236.01537,71.645597 C1236.01179,71.2913719 1236.01012,70.9823508 1236.01012,70.7186795 L1235.77052,70.7601255 C1235.61776,70.7881089 1235.42505,70.7999663 1235.19239,70.7966097 C1234.95984,70.7933626 1234.71843,70.7689912 1234.46848,70.7236778 C1234.21841,70.6787657 1233.98583,70.5746033 1233.77053,70.4114095 C1233.55535,70.2482157 1233.40259,70.0346007 1233.31229,69.7708929 L1233.20813,69.5311917 C1233.1387,69.3716098 1233.02939,69.1943331 1232.88006,69.0000182 C1232.73073,68.805521 1232.57972,68.6736671 1232.42697,68.6042376 L1232.35403,68.5520287 C1232.30544,68.5173323 1232.26034,68.4754849 1232.21864,68.4269244 C1232.17698,68.378364 1232.14578,68.329767 1232.12495,68.2810971 C1232.10408,68.2323907 1232.12137,68.1924405 1232.17701,68.1611005 C1232.23265,68.1297606 1232.3332,68.1145467 1232.4791,68.1145467 L1232.68735,68.1456677 C1232.82625,68.1735052 1232.99805,68.2566527 1233.20298,68.395621 C1233.40781,68.5344798 1233.57618,68.7150037 1233.70814,68.9371195 C1233.86795,69.2219151 1234.06047,69.4389232 1234.28627,69.588253 C1234.51189,69.7375828 1234.73937,69.8121201 1234.96849,69.8121201 C1235.19761,69.8121201 1235.3955,69.7947536 1235.56224,69.760203 C1235.72879,69.7254701 1235.88505,69.6732612 1236.03095,69.6038682 C1236.09345,69.1384028 1236.26361,68.7808212 1236.54129,68.5308679 C1236.14551,68.4892759 1235.78968,68.4266326 1235.47362,68.3433391 C1235.15773,68.2599362 1234.83131,68.1245799 1234.49456,67.9369051 C1234.15763,67.7494858 1233.87812,67.5167531 1233.65597,67.2391083 C1233.43378,66.9613176 1233.25144,66.5966216 1233.10918,66.1453485 C1232.96686,65.693893 1232.89568,65.1731175 1232.89568,64.5828761 C1232.89568,63.7424626 1233.17004,63.0272993 1233.71865,62.4369849 C1233.46166,61.8051516 1233.48592,61.0968473 1233.79151,60.3121451 C1233.9929,60.2495747 1234.29156,60.2965299 1234.68734,60.4527188 C1235.0832,60.6089806 1235.37303,60.7428411 1235.55713,60.8538261 C1235.74123,60.9647745 1235.88873,61.0587943 1235.99986,61.1350463 C1236.64582,60.9545589 1237.31242,60.864297 1237.99985,60.864297 C1238.68729,60.864297 1239.35404,60.9545589 1240.00003,61.1350463 L1240.39584,60.885166 C1240.66652,60.7184332 1240.98616,60.5656374 1241.35399,60.426742 C1241.72205,60.2879196 1242.00348,60.2496842 1242.19802,60.3122546 C1242.5104,61.0969932 1242.53823,61.805261 1242.28117,62.4370944 C1242.82974,63.0274088 1243.10421,63.7427545 1243.10421,64.5829856 C1243.10421,65.173227 1243.03278,65.6956442 1242.89067,66.1505657 C1242.74838,66.6055602 1242.56447,66.9698914 1242.33885,67.2443256 C1242.11297,67.5187232 1241.83168,67.7496317 1241.49493,67.9370146 C1241.15811,68.1245434 1240.83158,68.2598998 1240.5157,68.3433026 C1240.19967,68.4267055 1239.84384,68.4893854 1239.44806,68.5310503 C1239.80903,68.8434281 1239.98956,69.336512 1239.98956,70.0100833 L1239.98956,72.2077821 C1239.98956,72.332631 1240.03297,72.4368664 1240.11988,72.5201598 C1240.20667,72.6033073 1240.34375,72.6277882 1240.53127,72.5929458 C1242.14253,72.0583428 1243.45676,71.0948316 1244.47405,69.7024485 C1245.49123,68.310175 1246,66.7426313 1246,64.9994163 C1245.99964,63.5484031 1245.6418,62.2100532 1244.92685,60.9843665 Z" id="Github"></path>
    </g>

	<g id="codepen" fill="currentColor" fill-rule="nonzero">
	  <path d="M100 34.2c-.4-2.6-3.3-4-5.3-5.3-3.6-2.4-7.1-4.7-10.7-7.1-8.5-5.7-17.1-11.4-25.6-17.1-2-1.3-4-2.7-6-4-1.4-1-3.3-1-4.8 0-5.7 3.8-11.5 7.7-17.2 11.5L5.2 29C3 30.4.1 31.8 0 34.8c-.1 3.3 0 6.7 0 10v16c0 2.9-.6 6.3 2.1 8.1 6.4 4.4 12.9 8.6 19.4 12.9 8 5.3 16 10.7 24 16 2.2 1.5 4.4 3.1 7.1 1.3 2.3-1.5 4.5-3 6.8-4.5 8.9-5.9 17.8-11.9 26.7-17.8l9.9-6.6c.6-.4 1.3-.8 1.9-1.3 1.4-1 2-2.4 2-4.1V37.3c.1-1.1.2-2.1.1-3.1 0-.1 0 .2 0 0zM54.3 12.3L88 34.8 73 44.9 54.3 32.4V12.3zm-8.6 0v20L27.1 44.8 12 34.8l33.7-22.5zM8.6 42.8L19.3 50 8.6 57.2V42.8zm37.1 44.9L12 65.2l15-10.1 18.6 12.5v20.1zM50 60.2L34.8 50 50 39.8 65.2 50 50 60.2zm4.3 27.5v-20l18.6-12.5 15 10.1-33.6 22.4zm37.1-30.5L80.7 50l10.8-7.2-.1 14.4z"></path>
	</g>

	<g id="twitter" fill="currentColor" fill-rule="evenodd">
      <path d="M13.6666667,1.83890697 C13.1471861,2.09864723 12.6277056,2.18522732 12.1082251,2.2718074 C12.6277056,1.92548706 13.0606061,1.40600654 13.3203463,0.799945931 C12.8008658,1.14626628 12.1948052,1.31942645 11.5887446,1.49258662 C10.5497835,0.367045498 8.81818182,0.367045498 7.69264069,1.40600654 L7.69264069,1.40600654 C7,2.09864723 6.65367965,3.05102818 6.91341991,4.00340913 C4.74891775,3.91682905 2.67099567,2.87786801 1.28571429,1.14626628 C0.593073593,2.35838749 0.939393939,4.00340913 2.15151515,4.78262991 C1.71861472,4.78262991 1.28571429,4.60946974 0.939393939,4.43630957 L0.939393939,4.43630957 C0.939393939,5.73501087 1.80519481,6.86055199 3.1038961,7.12029225 C2.84415584,7.20687234 2.67099567,7.20687234 2.41125541,7.20687234 C2.23809524,7.20687234 2.06493506,7.20687234 1.89177489,7.12029225 C2.23809524,8.24583338 3.27705628,9.02505416 4.4025974,9.02505416 C3.45021645,9.80427494 2.23809524,10.1505953 1.02597403,10.1505953 L0.333333333,10.1505953 C1.54545455,10.9298161 3.01731602,11.3627165 4.48917749,11.3627165 C8.73160173,11.3627165 12.1948052,7.98609312 12.2813853,3.74366887 L12.2813853,3.31076844 C12.8008658,2.87786801 13.2337662,2.44496758 13.6666667,1.83890697 Z" />    
    </g>

	 <g id="email" fill="currentColor" fill-rule="nonzero">
        <path d="M6.8989989,7.96305444 C6.79424187,8.00795031 6.67451955,8.00795031 6.5847278,7.96305444 L-1.60405023e-12,4.76048228 L-1.60405023e-12,3.7877384 C-1.60405023e-12,3.59318962 0.164618195,3.42857143 0.359166971,3.42857143 L13.1095944,3.42857143 C13.3041432,3.42857143 13.4687614,3.59318962 13.4687614,3.7877384 L13.4687614,4.77544757 L6.8989989,7.96305444 Z M-1.60405023e-12,6.19621483 L-1.60405023e-12,12.2122616 C-1.60405023e-12,12.4068104 0.164618195,12.5714286 0.359166971,12.5714286 L13.1095944,12.5714286 C13.3041432,12.5714286 13.4687614,12.4068104 13.4687614,12.2122616 L13.4687614,6.19621483 L6.8989989,9.39878699 C6.79424187,9.44368286 6.67451955,9.44368286 6.5847278,9.39878699 L-1.60405023e-12,6.19621483 Z" id="Shape"></path>
     </g>
     
   <g id="linkedin" fill="currentColor" fill-rule="nonzero">
        <path d="M472 480h-79.991c-19.375 0-35.523-13.758-39.211-32.04-.273 0-.523.039-.797.039V303.205c0-17.242-14.328-31.196-31.999-31.196-17.672 0-32 13.954-32 31.196v136.81c0 9.758-3.648 18.547-9.438 25.508-3.18 4.813-8.609 7.985-14.805 7.985-9.812 0-17.758-7.946-17.758-17.759 0-5.188 2.258-9.812 5.828-13.062 2.586-2.852 4.18-6.547 4.18-10.673V301.713c0-34.079 28.648-61.713 63.992-61.713 35.343 0 64.007 27.634 64.007 61.713v107.426c0 1.148-.109 2.141-.18 3.195.055-.016.125-.016.18-.039v19.719c0 8.829 7.156 15.985 16 15.985H464c8.844 0 16-7.156 16-15.985V288.01c0-1.203-.141-2.352-.391-3.478-4.109-69.486-59.592-124.542-127.608-124.542-28.234 0-54.233 9.578-75.358 25.657-.078-.039-.164-.023-.328.102a12.409 12.409 0 0 1-7.812 2.75c-6.914 0-12.492-5.602-12.492-12.508 0-.859-.051-1.305-.141-1.43-.738-8.149-7.52-14.571-15.859-14.571h-48.007c-17.668 0-32.003 14.336-32.003 32.009v240.015c0 1.438.254 2.821.609 4.142a12.3 12.3 0 0 0-.609 3.859c0 22.086-17.902 39.985-40.004 39.985H40.003C17.922 480 0 462.101 0 440.015V167.99c0-22.086 17.922-39.985 40.003-39.985h40.004c26.496 0 47.988-21.493 47.988-48.01 0-26.516-21.492-48.009-47.988-48.009-26.512 0-48.003 21.493-48.003 48.009 0 8.844-7.156 16-16.004 16-8.824 0-16-7.156-16-16C0 35.806 35.824 0 80.007 0c44.187 0 79.992 35.806 79.992 79.995 0 4.055-.395 8-.984 11.899-.129.75-.199 1.523-.344 2.273-.699 3.891-1.648 7.719-2.906 11.391-.051.18-.141.344-.195.523a80.061 80.061 0 0 1-11.66 21.907c-14.586 19.391-37.746 32.001-63.902 32.001H48.003c-8.844 0-16 7.18-16 16v256.023c0 8.829 7.156 15.985 16 15.985h80.8a40.365 40.365 0 0 1-.809-7.984V191.999c0-35.345 28.668-63.994 64.007-63.994h56.007c9.883 0 18.867 3.641 25.836 9.617.086.055.172-.039.266.031a15.859 15.859 0 0 0 10.391 3.844c2.188 0 4.266-.43 6.148-1.227.57-.25.914-.211 1.242-.172 18.578-7.609 38.78-12.094 60.108-12.094 82.938 0 151.124 63.111 159.194 143.911a40.01 40.01 0 0 1 .805 8.094v160.006C512 462.101 494.102 480 472 480zm-263.994-32.001c8.824 0 16 7.172 16 16 0 8.845-7.175 16.001-16 16.001-8.844 0-16.004-7.156-16.004-16.001 0-8.828 7.161-16 16.004-16z"/>
    </g>

</svg>