<svg width="60" height="60" viewBox="0 0 60 60" fill="none" xmlns="http://www.w3.org/2000/svg">
<path d="M55.6236 8.73083C52.637 5.35782 48.5089 3.5004 44 3.5004C40.458 3.5004 37.1446 4.94169 34.418 7.66829C32.599 9.48739 31.098 11.8003 30.0001 14.4571C28.902 11.8003 27.4013 9.48751 25.5823 7.66829C22.8557 4.94169 19.5422 3.5004 16.0002 3.5004C11.4912 3.5004 7.36324 5.35794 4.3766 8.73094C1.59516 11.8717 0 16.1615 0 20.5003C0 25.7102 1.57641 30.8521 4.68527 35.7837C7.14727 39.6888 10.5712 43.4694 14.8624 47.0207C22.1334 53.038 29.2898 56.2779 29.5909 56.4128C29.8491 56.5286 30.1509 56.5286 30.409 56.4128C30.7102 56.2779 37.8664 53.038 45.1375 47.0207C49.4286 43.4694 52.8526 39.6888 55.3146 35.7837C58.4236 30.8521 60 25.7102 60 20.5003C60 16.1615 58.4048 11.8717 55.6236 8.73083Z" fill="#F18019"/>
<path d="M18.8624 47.0207C14.5712 43.4694 11.1472 39.6888 8.68523 35.7837C5.57637 30.8521 3.99996 25.7101 3.99996 20.5003C3.99996 16.1615 5.59512 11.8717 8.37633 8.73083C10.8888 5.89337 14.2093 4.12876 17.8847 3.63985C17.2652 3.54775 16.6363 3.50052 16.0001 3.50052C11.4911 3.50052 7.36312 5.35806 4.37648 8.73106C1.59516 11.8717 0 16.1615 0 20.5003C0 25.7102 1.57641 30.8521 4.68527 35.7837C7.14727 39.6888 10.5712 43.4694 14.8624 47.0207C22.1334 53.038 29.2898 56.2779 29.5909 56.4128C29.8491 56.5286 30.1509 56.5286 30.409 56.4128C30.4897 56.3767 31.0636 56.117 32 55.6408C29.4438 54.3409 24.1841 51.4248 18.8624 47.0207Z" fill="#F5A65C"/>
</svg>
